<?xml version="1.0" standalone="no"?>
<!DOCTYPE svg PUBLIC "-//W3C//DTD SVG 20010904//EN"
 "http://www.w3.org/TR/2001/REC-SVG-20010904/DTD/svg10.dtd">
<svg version="1.0" xmlns="http://www.w3.org/2000/svg"
 width="500.000000pt" height="500.000000pt" viewBox="0 0 500.000000 500.000000"
 preserveAspectRatio="xMidYMid meet">
<metadata>
Created by potrace 1.11, written by Peter Selinger 2001-2013
</metadata>
<g transform="translate(0.000000,500.000000) scale(0.100000,-0.100000)"
fill="#000000" stroke="none">
<path d="M3169 4145 c-7 0 -2 -358 4 -362 5 -3 52 -6 104 -6 l94 0 -4 -1141
c-2 -628 -6 -1152 -10 -1166 -25 -95 -34 -115 -63 -145 -48 -50 -120 -68 -276
-69 l-128 -1 1 -192 c0 -106 4 -194 7 -194 55 -10 491 -13 557 -4 155 21 248
75 340 197 61 82 106 190 120 290 3 24 7 54 10 68 16 95 19 285 19 1260 l1
1095 80 2 c44 1 87 2 96 2 14 1 16 23 15 183 l-1 181 -482 1 c-266 1 -484 1
-484 1z"/>
<path d="M110 3413 l0 -243 55 0 c30 0 55 -1 55 -3 0 -2 29 -104 65 -227 37
-124 68 -232 70 -240 5 -22 31 -112 140 -490 54 -184 114 -393 134 -465 l37
-130 252 -2 c139 0 254 2 256 6 8 12 206 741 206 759 1 15 2 15 10 2 6 -12
102 -346 125 -440 4 -15 24 -88 49 -183 8 -28 21 -72 28 -97 l14 -45 246 -2
c223 -2 246 0 251 15 22 71 130 439 140 477 3 11 25 88 50 170 39 129 195 663
245 837 l17 58 53 0 c34 0 52 4 53 13 1 14 1 459 0 468 -1 4 -143 7 -317 7
-272 0 -316 -2 -321 -15 -3 -8 -6 -118 -7 -244 l-1 -229 58 0 c31 0 57 -2 57
-5 0 -6 -57 -271 -80 -375 -11 -47 -22 -103 -26 -125 -3 -22 -8 -43 -10 -46
-2 -3 -6 -21 -9 -40 -3 -19 -8 -42 -11 -51 -3 -9 -7 -26 -9 -37 -3 -12 -7 -29
-9 -38 -2 -10 -10 -46 -16 -81 -7 -34 -15 -61 -17 -58 -4 3 -164 579 -177 636
-2 8 -16 58 -30 110 -14 52 -26 98 -26 103 0 4 26 7 58 7 l57 0 -2 217 c-1
120 -2 230 -2 244 l-1 27 -345 0 c-190 -1 -346 -3 -346 -7 -1 -3 -2 -113 -3
-243 l-1 -238 57 0 c65 0 67 -3 44 -72 -8 -24 -44 -155 -81 -293 -36 -137 -71
-263 -77 -280 -5 -16 -12 -43 -15 -60 -3 -16 -9 -37 -13 -45 -4 -8 -11 -34
-15 -57 -4 -24 -10 -45 -14 -47 -6 -4 -61 229 -77 329 -3 17 -9 44 -14 60 -5
17 -12 46 -15 65 -3 19 -8 42 -10 50 -2 8 -6 26 -9 40 -9 53 -57 276 -62 293
-5 15 2 17 54 17 l60 0 -1 243 -2 242 -412 1 -413 1 0 -244z"/>
<path d="M2452 1898 l0 -268 289 0 288 0 -2 267 -2 268 -287 0 -286 0 0 -267z"/>
<path d="M4323 2156 c-5 -7 -8 -454 -4 -513 1 -10 65 -13 286 -13 l285 0 0
268 0 267 -281 0 c-166 0 -283 -3 -286 -9z"/>
</g>
</svg>
